# xmcd
#
# Track frame offsets:
#	150
#	10065
#	15687
#	29749
#	32787
#	47101
#	58082
#	81803
#	87991
#	102808
#	111482
#	138495
#	146951
#	165653
#	171662
#	199896
#	207386
#	228570
#	236379
#	261122
#	268333
#	281695
#	290640
#	305566
#	310706
#
# Disc length: 4380 seconds
# Revision: 0
# Processed by: cddbd v1.5.2PL0 Copyright (c) Steve Scherf et al.
# Submitted via: dBpowerAMP V12.0
#
DISCID=81111a19
DTITLE=Various Artist - Tra ta song nui
DYEAR=2008
DGENRE=Country
TTITLE0=Hai Lan - Loi gioi thieu
TTITLE1=Pham Long - Dan doc
TTITLE2=Hoang Oanh - Tra ta song nui
TTITLE3=Hai Lan - Dan doc
TTITLE4=Hop ca - Viet Nam Viet Nam
TTITLE5=Pham Long - Dan doc
TTITLE6=Hoang Oanh - Giong song hat
TTITLE7=Hai Lan - Dan doc
TTITLE8=Hop ca - Bong co lau
TTITLE9=Pham Long - Dan doc
TTITLE10=Hop ca - Hoi nghi Dien Hong
TTITLE11=Pham Long - Dan doc
TTITLE12=Hop ca - Bach Dang giang
TTITLE13=Hai Lan - Dan doc
TTITLE14=Hoang Oanh - Nam quan han khuc
TTITLE15=Pham Long - Dan doc
TTITLE16=Hop ca - Lua rung dem
TTITLE17=Pham Long - Dan doc
TTITLE18=Hop ca - Ai Chi Lang
TTITLE19=Hai Lan - Dan doc
TTITLE20=Hop ca - Go Dong Da
TTITLE21=Hai Lan - Dan doc
TTITLE22=Hop ca - Hai quan Viet Nam
TTITLE23=Hai Lan - Dan doc
TTITLE24=Hop ca - Ta se ve
EXTD=
EXTT0=
EXTT1=
EXTT2=
EXTT3=
EXTT4=
EXTT5=
EXTT6=
EXTT7=
EXTT8=
EXTT9=
EXTT10=
EXTT11=
EXTT12=
EXTT13=
EXTT14=
EXTT15=
EXTT16=
EXTT17=
EXTT18=
EXTT19=
EXTT20=
EXTT21=
EXTT22=
EXTT23=
EXTT24=
PLAYORDER=
